<svg width="24" height="30" viewBox="0 0 24 30" fill="none" xmlns="http://www.w3.org/2000/svg">
<path fill-rule="evenodd" clip-rule="evenodd" d="M18.6635 16.3334C18.6635 17.068 18.068 17.6636 17.3333 17.6636H6.66668C5.93204 17.6636 5.33649 17.068 5.33649 16.3334C5.33649 15.5987 5.93204 15.0032 6.66668 15.0032H17.3333C18.068 15.0032 18.6635 15.5987 18.6635 16.3334Z" fill="#2A2A2A"/>
<path fill-rule="evenodd" clip-rule="evenodd" d="M18.6635 21.6667C18.6635 22.4014 18.068 22.9969 17.3333 22.9969H6.66668C5.93204 22.9969 5.33649 22.4014 5.33649 21.6667C5.33649 20.9321 5.93204 20.3365 6.66668 20.3365H17.3333C18.068 20.3365 18.6635 20.9321 18.6635 21.6667Z" fill="#2A2A2A"/>
<path fill-rule="evenodd" clip-rule="evenodd" d="M9.3302 11.0001C9.3302 11.7347 8.73466 12.3302 8.00001 12.3302H6.66668C5.93204 12.3302 5.33649 11.7347 5.33649 11.0001C5.33649 10.2654 5.93204 9.66987 6.66668 9.66987H8.00001C8.73466 9.66987 9.3302 10.2654 9.3302 11.0001Z" fill="#2A2A2A"/>
<path fill-rule="evenodd" clip-rule="evenodd" d="M15.0928 0.637863C14.351 0.330569 13.5477 0.331802 12.6426 0.333192L12.4575 0.333381L6.5789 0.333378C5.39692 0.333312 4.3785 0.333255 3.56295 0.442902C2.68893 0.560411 1.85113 0.825404 1.17158 1.50495C0.49203 2.1845 0.227036 3.0223 0.109527 3.89633C-0.000120252 4.71187 -6.31861e-05 5.73029 3.25323e-06 6.91227V23.0878C-6.31861e-05 24.2698 -0.000120252 25.2882 0.109527 26.1038C0.227036 26.9778 0.49203 27.8156 1.17158 28.4951C1.85113 29.1747 2.68893 29.4397 3.56295 29.5572C4.37851 29.6668 5.39694 29.6668 6.57893 29.6667H17.4211C18.6031 29.6668 19.6215 29.6668 20.4371 29.5572C21.3111 29.4397 22.1489 29.1747 22.8284 28.4951C23.508 27.8156 23.773 26.9778 23.8905 26.1038C24.0001 25.2882 24.0001 24.2698 24 23.0878L24 11.8759L24.0002 11.6908C24.0016 10.7857 24.0028 9.98243 23.6955 9.24055C23.3882 8.49869 22.8194 7.93158 22.1784 7.29259L22.0474 7.16181L17.1716 2.286L17.0408 2.15499C16.4018 1.51402 15.8347 0.945158 15.0928 0.637863ZM12 3.00005H6.66667C5.3719 3.00005 4.53495 3.00288 3.91828 3.08579C3.33996 3.16354 3.1587 3.28907 3.0572 3.39057C2.9557 3.49207 2.83017 3.67333 2.75241 4.25165C2.6695 4.86833 2.66667 5.70528 2.66667 7.00005V23C2.66667 24.2948 2.6695 25.1318 2.75241 25.7484C2.83017 26.3268 2.9557 26.508 3.0572 26.6095C3.1587 26.711 3.33996 26.8366 3.91828 26.9143C4.53495 26.9972 5.3719 27 6.66667 27H17.3333C18.6281 27 19.4651 26.9972 20.0817 26.9143C20.6601 26.8366 20.8413 26.711 20.9428 26.6095C21.0443 26.508 21.1698 26.3268 21.2476 25.7484C21.3305 25.1318 21.3333 24.2948 21.3333 23V12.3334L18.5789 12.3334C17.3969 12.3334 16.3785 12.3335 15.563 12.2239C14.6889 12.1063 13.8511 11.8414 13.1716 11.1618C12.492 10.4823 12.227 9.64445 12.1095 8.77043C11.9999 7.95488 11.9999 6.93646 12 5.75448L12 3.00005ZM20.7699 9.66671C20.6229 9.51187 20.4267 9.31236 20.1618 9.04743L15.286 4.17162C15.021 3.90668 14.8215 3.71043 14.6667 3.56344V5.66671C14.6667 6.96148 14.6695 7.79843 14.7524 8.4151C14.8302 8.99342 14.9557 9.17468 15.0572 9.27618C15.1587 9.37768 15.34 9.50321 15.9183 9.58097C16.535 9.66388 17.3719 9.66671 18.6667 9.66671H20.7699Z" fill="#2A2A2A"/>
</svg>
