<svg width="24" height="24" viewBox="0 0 24 24" fill="none" xmlns="http://www.w3.org/2000/svg">
<path d="M8.29536 8.29289C8.68589 7.90237 9.31905 7.90237 9.70958 8.29289L12.0015 10.5848L14.2929 8.29339C14.6834 7.90286 15.3166 7.90286 15.7071 8.29339C16.0976 8.68391 16.0976 9.31707 15.7071 9.7076L13.4157 11.999L15.7071 14.2904C16.0977 14.681 16.0977 15.3141 15.7071 15.7047C15.3166 16.0952 14.6834 16.0952 14.2929 15.7047L12.0015 13.4132L9.70955 15.7052C9.31902 16.0957 8.68586 16.0957 8.29533 15.7052C7.90481 15.3146 7.90481 14.6815 8.29533 14.2909L10.5873 11.999L8.29536 9.70711C7.90484 9.31658 7.90484 8.68342 8.29536 8.29289Z" fill="#AD0000"/>
<path fill-rule="evenodd" clip-rule="evenodd" d="M12 1C5.92487 1 1 5.92487 1 12C1 18.0751 5.92487 23 12 23C18.0751 23 23 18.0751 23 12C23 5.92487 18.0751 1 12 1ZM3 12C3 7.02944 7.02944 3 12 3C16.9706 3 21 7.02944 21 12C21 16.9706 16.9706 21 12 21C7.02944 21 3 16.9706 3 12Z" fill="#AD0000"/>
</svg>
