<svg width="24" height="24" viewBox="0 0 24 24" fill="none" xmlns="http://www.w3.org/2000/svg">
<path d="M22 7C22 7.55228 21.5523 8 21 8L3 8C2.44772 8 2 7.55228 2 7C2 6.44771 2.44772 6 3 6H21C21.5523 6 22 6.44772 22 7Z" fill="#2A2A2A"/>
<path d="M22 12C22 12.5523 21.5523 13 21 13L3 13C2.44772 13 2 12.5523 2 12C2 11.4477 2.44772 11 3 11L21 11C21.5523 11 22 11.4477 22 12Z" fill="#2A2A2A"/>
<path d="M21 18C21.5523 18 22 17.5523 22 17C22 16.4477 21.5523 16 21 16L3 16C2.44772 16 2 16.4477 2 17C2 17.5523 2.44772 18 3 18L21 18Z" fill="#2A2A2A"/>
</svg>
