<svg width="12" height="12" viewBox="0 0 12 12" fill="none" xmlns="http://www.w3.org/2000/svg">
<path d="M0.292918 10.2922C-0.09762 10.6827 -0.0976421 11.3158 0.292869 11.7064C0.683379 12.0969 1.31654 12.0969 1.70708 11.7064L5.99981 7.41401L10.2914 11.7056C10.6819 12.0961 11.3151 12.0961 11.7056 11.7056C12.0961 11.3151 12.0961 10.6819 11.7056 10.2914L7.41407 5.99985L11.7071 1.70713C12.0976 1.31662 12.0976 0.683456 11.7071 0.292918C11.3166 -0.0976204 10.6835 -0.0976419 10.2929 0.292869L5.99986 4.58563L1.70712 0.292895C1.31659 -0.0976292 0.683429 -0.0976292 0.292905 0.292895C-0.0976195 0.683419 -0.0976195 1.31658 0.292905 1.70711L4.58559 5.9998L0.292918 10.2922Z" fill="#2A2A2A"/>
</svg>
