<svg width="24" height="24" viewBox="0 0 24 24" fill="none" xmlns="http://www.w3.org/2000/svg">
    <path d="M12.6 9.80006C12.1582 10.1314 11.5314 10.0419 11.2 9.60006C10.8686 9.15823 10.9582 8.53143 11.4 8.20006L13 7.00006H12C8.68629 7.00006 6 9.68635 6 13.0001C6 16.3138 8.68629 19.0001 12 19.0001C15.3137 19.0001 18 16.3138 18 13.0001C18 12.4478 18.4477 12.0001 19 12.0001C19.5523 12.0001 20 12.4478 20 13.0001C20 17.4183 16.4183 21.0001 12 21.0001C7.58172 21.0001 4 17.4183 4 13.0001C4 8.58178 7.58172 5.00006 12 5.00006H13L11.4 3.80006C10.9582 3.46869 10.8686 2.84189 11.2 2.40006C11.5314 1.95823 12.1582 1.86869 12.6 2.20006L16.6 5.20006C16.8518 5.38891 17 5.6853 17 6.00006C17 6.31482 16.8518 6.6112 16.6 6.80006L12.6 9.80006Z" fill="#121212"/>
</svg>