<?xml version="1.0" standalone="no"?>
<!DOCTYPE svg PUBLIC "-//W3C//DTD SVG 20010904//EN"
 "http://www.w3.org/TR/2001/REC-SVG-20010904/DTD/svg10.dtd">
<svg version="1.0" xmlns="http://www.w3.org/2000/svg"
 width="700.000000pt" height="700.000000pt" viewBox="0 0 700.000000 700.000000"
 preserveAspectRatio="xMidYMid meet">
<metadata>
Created by potrace 1.14, written by Peter Selinger 2001-2017
</metadata>
<g transform="translate(0.000000,700.000000) scale(0.100000,-0.100000)"
fill="#000000" stroke="none">
<path d="M2047 6975 c-1 -2 -36 -5 -77 -9 -695 -57 -1345 -516 -1654 -1169
-68 -144 -145 -376 -162 -487 -3 -19 -7 -42 -10 -50 -2 -8 -6 -38 -9 -65 -4
-28 -9 -61 -12 -75 -3 -14 -7 -685 -9 -1491 l-2 -1467 31 4 c348 47 517 122
704 310 125 125 213 275 263 442 40 137 39 123 45 1187 2 490 7 912 10 939 11
81 54 216 94 297 58 115 116 195 205 284 147 146 298 226 521 277 37 8 691 12
2470 14 1331 1 2425 3 2431 3 7 1 10 161 10 529 l-1 527 -2423 1 c-1332 0
-2423 0 -2425 -1z"/>
<path d="M6810 4894 c-41 -7 -90 -15 -110 -18 -135 -20 -308 -95 -429 -186
-221 -167 -362 -405 -407 -690 -4 -25 -8 -466 -9 -980 -2 -514 -5 -953 -9
-975 -3 -22 -8 -51 -11 -65 -3 -14 -7 -36 -10 -50 -26 -142 -144 -351 -268
-474 -91 -90 -107 -103 -200 -159 -145 -88 -287 -133 -457 -143 -30 -1 -1120
-3 -2421 -3 l-2367 -1 0 -530 0 -530 2462 3 c1353 2 2477 6 2496 10 19 3 55 9
79 12 402 53 819 265 1130 574 336 334 546 769 607 1261 9 67 13 2950 5 2954
-3 2 -40 -3 -81 -10z"/>
<path d="M2087 4852 c-16 -3 -17 -97 -17 -1348 l0 -1344 28 -1 c15 0 197 -1
405 -2 328 -2 378 0 382 13 2 8 4 313 4 678 -1 365 1 665 2 667 2 2 43 -45 91
-103 48 -59 99 -120 112 -135 14 -16 40 -47 58 -70 18 -22 89 -109 158 -192
69 -83 141 -171 160 -194 l35 -43 75 92 c41 51 83 102 94 114 10 11 44 52 75
91 31 38 63 77 71 87 8 9 78 93 155 186 77 94 142 169 143 167 2 -2 4 -308 4
-679 l0 -676 37 -1 c46 -1 752 -1 769 0 9 1 12 277 12 1346 0 1274 -1 1345
-17 1346 -10 1 -182 2 -383 3 -317 1 -367 -1 -380 -14 -9 -9 -96 -121 -195
-250 -98 -129 -213 -280 -255 -335 -42 -55 -105 -138 -140 -184 l-64 -83 -21
24 c-11 14 -108 141 -215 283 -107 142 -200 263 -207 270 -6 7 -22 28 -35 46
-56 82 -181 239 -192 240 -31 3 -735 4 -749 1z"/>
</g>
</svg>
